<?xml version="1.0" encoding="UTF-8"?>
<svg width="800" height="600" viewBox="0 0 800 600" xmlns="http://www.w3.org/2000/svg" fill="none">
  <rect width="800" height="600" rx="24" fill="#F7F9FC" />
  <g transform="translate(60,40)">
    <rect x="0" y="0" width="320" height="200" rx="12" fill="#fff" stroke="#E6EEF8" />
    <rect x="20" y="20" width="280" height="28" rx="6" fill="#E6F0FF" />
    <rect x="20" y="60" width="240" height="12" rx="6" fill="#F0F6FB" />
    <rect x="20" y="82" width="260" height="12" rx="6" fill="#F0F6FB" />
    <rect x="20" y="104" width="200" height="12" rx="6" fill="#F0F6FB" />

    <rect x="360" y="0" width="320" height="320" rx="12" fill="#fff" stroke="#E6EEF8" />
    <circle cx="520" cy="80" r="36" fill="#FFD7B5" />
    <rect x="420" y="150" width="200" height="12" rx="6" fill="#F0F6FB" />
    <rect x="420" y="176" width="180" height="12" rx="6" fill="#F0F6FB" />
    <rect x="420" y="202" width="120" height="12" rx="6" fill="#F0F6FB" />

    <g transform="translate(0,240)">
      <rect x="0" y="0" width="680" height="12" rx="6" fill="#EAF2FF" />
      <rect x="0" y="26" width="480" height="12" rx="6" fill="#EAF2FF" />
    </g>

    <text x="0" y="320" font-family="Inter, Arial, sans-serif" font-size="20" fill="#2B3A4A">Write your next post</text>
  </g>
</svg>